<svg id="Layer_1" data-name="Layer 1" xmlns="http://www.w3.org/2000/svg" width="489.88" height="341.05" viewBox="0 0 489.88 341.05">
  <defs>
    <style>
      .cls-1 {
        fill: #006937;
      }
    </style>
  </defs>
  <title>ksu-kentucky-state-university-logo-freelogovectors.net</title>
  <g>
    <polygon class="cls-1" points="0 296.4 0 293.42 3.43 293.22 4.26 292.24 4.26 265.9 3.43 265.15 0 264.95 0 261.96 17.24 261.96 17.24 264.95 14.21 265.2 13.41 265.9 13.41 278.81 14.54 278.81 25.91 265.8 25.66 265.2 22.58 264.95 22.58 261.96 35.41 261.96 35.41 264.95 31.52 265.2 22.33 275.68 33.05 293.12 36.86 293.42 36.86 296.4 23.66 296.4 23.66 294.4 15.81 281.56 13.41 281.56 13.41 292.24 14.21 293.22 17.24 293.42 17.24 296.4 0 296.4"/>
    <polygon class="cls-1" points="41.32 296.4 41.32 293.42 44.75 293.22 45.58 292.24 45.58 265.9 44.75 265.15 41.32 264.95 41.32 261.96 69.56 261.96 69.56 270.54 65.2 270.54 64.37 265.98 63.65 265.4 54.52 265.4 54.52 276.8 59.91 276.8 60.67 276.08 61.19 272.39 64.82 272.39 64.82 285 61.19 285 60.67 281.31 59.91 280.59 54.52 280.59 54.52 292.97 65.25 292.97 65.95 292.14 66.88 286.45 71.14 286.45 71.14 296.4 41.32 296.4"/>
    <polygon class="cls-1" points="76.1 296.4 76.1 293.52 79.23 293.22 80.21 292.24 80.21 265.9 79.53 265.15 76.1 264.95 76.1 261.96 90.58 261.96 90.58 263.35 105.3 286.17 105.3 266.13 104.39 265.15 101.03 264.67 101.03 261.96 114.04 261.96 114.04 264.67 111.01 265.15 110.03 266.13 110.03 296.4 101.86 296.4 84.87 270.24 84.87 292.24 85.6 293.22 89.03 293.52 89.03 296.4 76.1 296.4"/>
    <polygon class="cls-1" points="118.13 261.97 149.67 261.97 149.67 272.27 145.37 272.27 144.29 266.08 143.36 265.45 138.5 265.45 138.5 292.24 139.48 293.22 142.86 293.42 142.86 296.4 124.89 296.4 124.89 293.42 128.32 293.22 129.3 292.24 129.3 265.45 124.34 265.45 123.46 266.08 122.44 272.27 118.13 272.27 118.13 261.97"/>
    <path class="cls-1" d="M158,341.24h17.34v3l-3.33.2-.62.75v17.32c0,3.19.6,5.46,1.8,6.83s3.19,2,6,2,4.51-.71,5.59-2.15,1.63-4,1.63-7.7V345.17l-.6-.75-3.66-.2v-3H195v3l-3.29.2-.65.75v17q0,7.57-3.41,10.9t-11.13,3.34a19.48,19.48,0,0,1-7.6-1.33,11.09,11.09,0,0,1-4.93-4,9.9,9.9,0,0,1-1.36-3.33,31,31,0,0,1-.42-6.07V345.17l-.62-.75-3.64-.2Z" transform="translate(-4.31 -79.27)"/>
    <path class="cls-1" d="M229,374.44a34.53,34.53,0,0,1-5.72,1.47,37.8,37.8,0,0,1-6.08.49,23.05,23.05,0,0,1-5.64-.68,17.14,17.14,0,0,1-4.79-2,17,17,0,0,1-6.27-6.45,18,18,0,0,1-2.25-8.88,17.32,17.32,0,0,1,1.41-6.93,17.52,17.52,0,0,1,4-5.8,17.1,17.1,0,0,1,6.09-3.8,22.38,22.38,0,0,1,7.77-1.29,36,36,0,0,1,6.21.5,25,25,0,0,1,5.24,1.51v9.29h-4.68L223,345.6l-.88-.83c-.38-.08-.81-.14-1.26-.19s-1-.06-1.55-.06a9.76,9.76,0,0,0-8.06,3.8q-3,3.8-3,10.21t3.05,10.12a9.67,9.67,0,0,0,7.95,3.84c.57,0,1.1,0,1.57-.05s.92-.09,1.34-.15l.83-.78,1.33-6.67H229Z" transform="translate(-4.31 -79.27)"/>
    <polygon class="cls-1" points="229.74 296.4 229.74 293.42 233.17 293.22 234 292.24 234 265.9 233.17 265.15 229.74 264.95 229.74 261.96 246.98 261.96 246.98 264.95 243.94 265.2 243.15 265.9 243.15 278.81 244.27 278.81 255.65 265.8 255.4 265.2 252.32 264.95 252.32 261.96 265.15 261.96 265.15 264.95 261.26 265.2 252.07 275.68 262.79 293.12 266.6 293.42 266.6 296.4 253.4 296.4 253.4 294.4 245.55 281.56 243.15 281.56 243.15 292.24 243.94 293.22 246.98 293.42 246.98 296.4 229.74 296.4"/>
    <polygon class="cls-1" points="268.39 261.97 285.01 261.97 285.01 264.9 282.02 265.15 281.57 265.85 288.19 277.93 294.6 266.33 294.2 265.4 291.12 264.82 291.12 261.97 303.42 261.97 303.42 264.95 300.29 265.4 291.02 281.41 291.02 292.39 291.82 293.17 295.48 293.42 295.48 296.4 277.51 296.4 277.51 293.42 281 293.17 281.82 292.39 281.82 283.32 271.87 265.45 268.39 264.95 268.39 261.97"/>
    <path class="cls-1" d="M329.74,374.44v-9.5h4.77l1.18,6.32.72.78c.65.1,1.3.17,1.94.22s1.3.08,2,.08a7.78,7.78,0,0,0,4.71-1.29,4.06,4.06,0,0,0,1.75-3.45,3.78,3.78,0,0,0-.23-1.34,4,4,0,0,0-.69-1.17q-1.2-1.32-5.09-2.83c-1.27-.46-2.24-.86-2.93-1.18A15,15,0,0,1,332,357a8.77,8.77,0,0,1-1.86-5.62,9.58,9.58,0,0,1,3.64-7.82q3.63-3,9.72-3a28.71,28.71,0,0,1,5.34.52,39.54,39.54,0,0,1,5.64,1.54v8.66h-4.76l-1-5.68-.63-.63a9.43,9.43,0,0,0-1.46-.34,11.9,11.9,0,0,0-1.62-.11,7.49,7.49,0,0,0-4.56,1.23,3.94,3.94,0,0,0-1.65,3.33q0,2.88,6.34,5.54c.48.2.85.36,1.1.48q5.67,2.37,7.51,4.54a8.41,8.41,0,0,1,1.84,5.6,9.6,9.6,0,0,1-4,8.05q-4,3-10.68,3a29.31,29.31,0,0,1-4.95-.46,62.47,62.47,0,0,1-6.23-1.4" transform="translate(-4.31 -79.27)"/>
    <polygon class="cls-1" points="355.65 261.97 387.2 261.97 387.2 272.27 382.89 272.27 381.81 266.08 380.88 265.45 376.02 265.45 376.02 292.24 377 293.22 380.38 293.42 380.38 296.4 362.41 296.4 362.41 293.42 365.85 293.22 366.82 292.24 366.82 265.45 361.86 265.45 360.99 266.08 359.96 272.27 355.65 272.27 355.65 261.97"/>
    <path class="cls-1" d="M407.71,349.33l-4.07,11.35h8.2ZM406.35,341h7.39l11.91,31.31,3.13.4v3H412.16v-3l3.49-.25.4-.68-2.71-7.64H402.42l-2.59,7.59.53.63,3.28.35v3H391.27v-3l3.33-.2Z" transform="translate(-4.31 -79.27)"/>
    <polygon class="cls-1" points="424.27 261.97 455.82 261.97 455.82 272.27 451.51 272.27 450.44 266.08 449.51 265.45 444.64 265.45 444.64 292.24 445.62 293.22 449.01 293.42 449.01 296.4 431.04 296.4 431.04 293.42 434.47 293.22 435.45 292.24 435.45 265.45 430.49 265.45 429.61 266.08 428.58 272.27 424.27 272.27 424.27 261.97"/>
    <polygon class="cls-1" points="460.06 296.4 460.06 293.42 463.49 293.22 464.32 292.24 464.32 265.9 463.49 265.15 460.06 264.95 460.06 261.96 488.3 261.96 488.3 270.54 483.94 270.54 483.12 265.98 482.39 265.4 473.27 265.4 473.27 276.8 478.65 276.8 479.41 276.08 479.93 272.39 483.57 272.39 483.57 285 479.93 285 479.41 281.31 478.65 280.59 473.27 280.59 473.27 292.97 483.99 292.97 484.69 292.14 485.62 286.45 489.88 286.45 489.88 296.4 460.06 296.4"/>
    <path class="cls-1" d="M127.35,409.65a12.69,12.69,0,0,1-.7,4.26,9.39,9.39,0,0,1-2.07,3.37,9.6,9.6,0,0,1-3.43,2.24,14.47,14.47,0,0,1-9.49,0,9.6,9.6,0,0,1-3.43-2.24,9.39,9.39,0,0,1-2.07-3.37,12.69,12.69,0,0,1-.7-4.26V393.7h5.72v15.74a6.44,6.44,0,0,0,.38,2.23,5.27,5.27,0,0,0,1.09,1.78,4.9,4.9,0,0,0,1.66,1.17,5.26,5.26,0,0,0,2.11.42,5.1,5.1,0,0,0,2.09-.42,4.86,4.86,0,0,0,1.65-1.17,5.09,5.09,0,0,0,1.08-1.78,6.22,6.22,0,0,0,.39-2.23V393.7h5.72Z" transform="translate(-4.31 -79.27)"/>
    <polygon class="cls-1" points="136.68 314.44 144.45 314.44 155.48 332.47 155.56 332.47 155.56 314.44 161.28 314.44 161.28 340.39 153.8 340.39 142.47 321.92 142.4 321.92 142.4 340.39 136.68 340.39 136.68 314.44"/>
    <rect class="cls-1" x="174.93" y="314.44" width="5.72" height="25.95"/>
    <polygon class="cls-1" points="191.62 314.44 198.14 314.44 204.56 331.45 204.63 331.45 211.16 314.44 217.28 314.44 206.57 340.39 201.99 340.39 191.62 314.44"/>
    <polygon class="cls-1" points="228.46 314.44 246.09 314.44 246.09 319.72 234.18 319.72 234.18 324.56 245.43 324.56 245.43 329.84 234.18 329.84 234.18 335.11 246.75 335.11 246.75 340.39 228.46 340.39 228.46 314.44"/>
    <path class="cls-1" d="M269.72,404.45h3.37c.52,0,1.06,0,1.63-.05a5,5,0,0,0,1.56-.34,2.52,2.52,0,0,0,1.15-.86,2.59,2.59,0,0,0,.46-1.65,2.76,2.76,0,0,0-.4-1.58,2.73,2.73,0,0,0-1-.89,4.49,4.49,0,0,0-1.44-.42,10.54,10.54,0,0,0-1.57-.11h-3.74ZM264,393.71h10.05a17.56,17.56,0,0,1,3.76.38,8.77,8.77,0,0,1,3.11,1.29,6.35,6.35,0,0,1,2.13,2.42,8.22,8.22,0,0,1,.79,3.79,7.57,7.57,0,0,1-1.44,4.67,6.38,6.38,0,0,1-4.17,2.44l6.59,11H278l-5.43-10.37h-2.82v10.37H264Z" transform="translate(-4.31 -79.27)"/>
    <path class="cls-1" d="M309.15,400.05a4,4,0,0,0-1.89-1.3,6.74,6.74,0,0,0-2.25-.42,5.7,5.7,0,0,0-1.28.14,4.93,4.93,0,0,0-1.25.46,2.64,2.64,0,0,0-1,.83,2,2,0,0,0-.37,1.24,2.06,2.06,0,0,0,.88,1.8,8.27,8.27,0,0,0,2.21,1.06c.9.3,1.86.59,2.88.88A12,12,0,0,1,310,406a6.73,6.73,0,0,1,2.22,2.16,6.59,6.59,0,0,1,.88,3.63,8.48,8.48,0,0,1-.8,3.78,7.71,7.71,0,0,1-2.19,2.67,9.35,9.35,0,0,1-3.19,1.58,14.06,14.06,0,0,1-3.83.51,13.7,13.7,0,0,1-4.69-.77,11.63,11.63,0,0,1-4-2.49l4.07-4.47a5.91,5.91,0,0,0,2.21,1.81,6.34,6.34,0,0,0,2.77.64,6.22,6.22,0,0,0,1.41-.16,4.62,4.62,0,0,0,1.29-.5,3,3,0,0,0,.92-.84,2.1,2.1,0,0,0,.34-1.21,2.19,2.19,0,0,0-.9-1.85,8.46,8.46,0,0,0-2.25-1.16c-.9-.31-1.88-.63-2.93-.95a13.62,13.62,0,0,1-2.94-1.28,7.15,7.15,0,0,1-2.25-2.13,6.07,6.07,0,0,1-.9-3.48,7.7,7.7,0,0,1,.83-3.67,7.91,7.91,0,0,1,2.19-2.64,9.74,9.74,0,0,1,3.17-1.59,12.85,12.85,0,0,1,3.71-.53,14.71,14.71,0,0,1,4.25.62,9.74,9.74,0,0,1,3.7,2.09Z" transform="translate(-4.31 -79.27)"/>
    <rect class="cls-1" x="321.3" y="314.44" width="5.72" height="25.95"/>
    <polygon class="cls-1" points="345.47 319.5 338.07 319.5 338.07 314.44 358.6 314.44 358.6 319.5 351.19 319.5 351.19 340.39 345.47 340.39 345.47 319.5"/>
    <polygon class="cls-1" points="377.76 329.32 368.01 314.44 375.13 314.44 380.62 324.15 386.45 314.44 393.23 314.44 383.48 329.32 383.48 340.39 377.76 340.39 377.76 329.32"/>
    <path class="cls-1" d="M405,286.09H282.49v16.58h123.9V287.51a1.43,1.43,0,0,0-1.43-1.42" transform="translate(-4.31 -79.27)"/>
    <path class="cls-1" d="M387.8,177.75v56.74c1-.66,3.3-1.36,8.52-1.36s7.55.7,8.55,1.37V177.76c-1-.67-3.3-1.37-8.55-1.37s-7.51.7-8.52,1.36" transform="translate(-4.31 -79.27)"/>
    <path class="cls-1" d="M404.87,235.87c-1-.67-3.3-1.37-8.55-1.37s-7.51.7-8.52,1.36v48.86h17.07Z" transform="translate(-4.31 -79.27)"/>
    <path class="cls-1" d="M403.43,140.21v3.38a24.71,24.71,0,0,0-2.76-.39v-4.09h-3v3.94l-1.39,0-1.38,0v-3.94h-3v4.09a24.37,24.37,0,0,0-2.76.39v-3.38h-3v4.43h0v.94h0a26.68,26.68,0,0,0,.66,5.11l.54,2.34h0a2.65,2.65,0,0,1,.35-.26h0a6.18,6.18,0,0,1,1.18-.52l.15,0c.21-.07.46-.13.72-.19l.17,0c.33-.08.69-.15,1.09-.21h0c.37-.05.79-.1,1.23-.14l.4,0,1.16-.07.48,0c.57,0,1.17,0,1.83,0s1.27,0,1.84,0l.48,0,1.16.07.4,0c.44,0,.86.09,1.23.14h0c.4.06.76.13,1.09.21l.17,0c.26.06.5.12.72.19l.15,0a6.18,6.18,0,0,1,1.18.52h0a2.65,2.65,0,0,1,.35.26h0l.54-2.34a27.5,27.5,0,0,0,.66-5.11h0v-5.37Z" transform="translate(-4.31 -79.27)"/>
    <path class="cls-1" d="M215.53,103.13v7.56a10,10,0,0,0,.51,3.16l.09.24H284a10,10,0,0,0,.71-3.7v-7.26Z" transform="translate(-4.31 -79.27)"/>
    <polygon class="cls-1" points="212.33 36.34 214.36 46.63 276.66 46.63 279.11 36.34 212.33 36.34"/>
    <path class="cls-1" d="M215.53,100.31v1.3h69.21V94.1a49.32,49.32,0,0,1,.44-5.95,23.13,23.13,0,0,0,.14-2.5V79.27h-4.69v6.45h-4.69V79.27h-4.69v6.45h-4.69V79.27h-4.69v6.45h-4.7V79.27h-4.69v6.45h-4.69V79.27H243.1v6.45h-4.69V79.27h-4.69v6.45H229V79.27h-4.69v6.45h-4.7V79.27H215v6.38c0,.5,0,1.15.12,1.81.28,2.53.45,10.3.45,12.85" transform="translate(-4.31 -79.27)"/>
    <path class="cls-1" d="M93.25,287.51v15.16h123.9V286.09H94.67a1.43,1.43,0,0,0-1.42,1.42" transform="translate(-4.31 -79.27)"/>
    <path class="cls-1" d="M93.94,150.69l.54,2.34h0a2.12,2.12,0,0,1,.35-.26h0a5.13,5.13,0,0,1,1.18-.52l.14-.05.73-.2.17,0c.33-.08.68-.14,1.09-.21h0c.37-.06.78-.1,1.23-.15l.4,0,1.16-.07.48,0c.57,0,1.17,0,1.84,0s1.26,0,1.83,0l.48,0,1.15.07.41,0c.44.05.86.09,1.23.15h0c.4.07.76.13,1.09.21l.17,0,.72.2.14,0a5.68,5.68,0,0,1,1.19.53h0a2.65,2.65,0,0,1,.35.26h0l.54-2.34a26.68,26.68,0,0,0,.66-5.11h0v-.93h0v-4.43h-3v3.38a24.58,24.58,0,0,0-2.77-.39v-4.09h-3v3.94l-1.37,0-1.39,0v-3.94H99v4.09a24.37,24.37,0,0,0-2.76.39v-3.38h-3v4.43h0v.93h0a26.68,26.68,0,0,0,.66,5.11" transform="translate(-4.31 -79.27)"/>
    <path class="cls-1" d="M111.86,177.84c-1-.7-3.3-1.46-8.55-1.46s-7.54.76-8.54,1.46v56.67a3.27,3.27,0,0,1,.43-.25c1.18-.59,3.51-1.14,8.11-1.14s6.94.55,8.12,1.14c.16.08.3.17.43.25Z" transform="translate(-4.31 -79.27)"/>
    <path class="cls-1" d="M94.77,235.87v48.85h17.09V235.87c-1-.67-3.3-1.37-8.55-1.37s-7.54.7-8.54,1.37" transform="translate(-4.31 -79.27)"/>
    <path class="cls-1" d="M237.59,186.32h24.46v6.59h-1.52v-5.07H239.11v5.07h-1.52Zm19.17-16h-4.08v-6.44h4.08Zm0-7.08h-4.08v-6.44h4.08Zm-4.07-21h4.07v6.44h-4.07Zm4.07,13.65h-4.08v-6.44h4.08Zm-4.84,14.41h-4.14v-6.44h4.14Zm0-7.2h-4.14v-6.19h4.14Zm-4.14-20.86h4.14v6.44h-4.14Zm4.14,13.65h-4.14v-6.44h4.14Zm5.74,18.39H242v-1.79h15.69Zm-10.64-4h-4.14v-6.44H247Zm0-7.2h-4.14v-6.19H247Zm-4.14-20.86H247v6.44h-4.14ZM247,155.87h-4.14v-6.44H247Zm-9.43-19.35h24.46v6.59h-1.52V138H239.11v5.07h-1.52Zm19.17,83.57h-4.08v-6.45h4.08Zm0-7.08h-4.08v-6.45h4.08Zm-4.07-21h4.07v6.44h-4.07Zm4.07,13.65h-4.08v-6.44h4.08Zm-4.84,14.42h-4.14v-6.45h4.14Zm0-7.21h-4.14v-6.19h4.14ZM247.78,192h4.14v6.44h-4.14Zm4.14,13.65h-4.14v-6.44h4.14ZM247,220.09h-4.14v-6.45H247Zm0-7.21h-4.14v-6.19H247ZM242.88,192H247v6.44h-4.14ZM247,205.67h-4.14v-6.44H247Zm10.64,18.39H242v-1.79h15.69Zm-39,9.1H281V127.41h-62.3Z" transform="translate(-4.31 -79.27)"/>
    <path class="cls-1" d="M379,246.88h-1.52v-5.07H356.05v5.07h-1.52v-6.59H379Zm-5.3,27.18h-4.07v-6.44h4.07Zm0-7.08h-4.07v-6.45h4.07Zm-4.07-21h4.07v6.45h-4.07Zm4.07,13.66h-4.07V253.2h4.07Zm-4.84,14.41h-4.13v-6.44h4.13Zm0-7.21h-4.13v-6.18h4.13ZM364.73,246h4.13v6.45h-4.13Zm4.13,13.66h-4.13V253.2h4.13ZM364,274.06h-4.13v-6.44H364Zm0-7.21h-4.13v-6.18H364ZM359.83,246H364v6.45h-4.13ZM364,259.65h-4.13V253.2H364ZM374.61,278H358.92v-1.78h15.69Zm-28-31.15H345.1v-5.07H323.67v5.07h-1.51v-6.59h24.46Zm-5.29,27.18h-4.07v-6.44h4.07Zm0-7.08h-4.07v-6.45h4.07Zm-4.08-21h4.07v6.45h-4.07Zm4.08,13.66h-4.07V253.2h4.07Zm-4.84,14.41h-4.14v-6.44h4.14Zm0-7.21h-4.14v-6.18h4.14ZM332.35,246h4.14v6.45h-4.14Zm4.14,13.66h-4.14V253.2h4.14Zm-4.9,14.41h-4.14v-6.44h4.14Zm0-7.21h-4.14v-6.18h4.14ZM327.45,246h4.14v6.45h-4.14Zm4.14,13.66h-4.14V253.2h4.14ZM342.23,278H326.54v-1.78h15.69Zm-28-31.15h-1.52v-5.07H291.27v5.07h-1.52v-6.59h24.46Zm-5.29,27.18h-4.07v-6.44h4.07Zm0-7.08h-4.07v-6.45h4.07Zm-4.07-21h4.07v6.45h-4.07Zm4.07,13.66h-4.07V253.2h4.07Zm-4.84,14.41h-4.14v-6.44h4.14Zm0-7.21h-4.14v-6.18h4.14ZM299.94,246h4.14v6.45h-4.14Zm4.14,13.66h-4.14V253.2h4.14Zm-4.9,14.41H295v-6.44h4.14Zm0-7.21H295v-6.18h4.14ZM295,246h4.14v6.45H295Zm4.14,13.66H295V253.2h4.14ZM309.82,278H294.14v-1.78h15.68Zm76.44-42.16H282.49v48.85H386.26Z" transform="translate(-4.31 -79.27)"/>
    <path class="cls-1" d="M289.75,190.49h24.46v6.59H312.7V192H291.27v5.07h-1.52Zm32.4,0h24.47v6.59H345.1V192H323.68v5.07h-1.53Zm32.38,0H379v6.59h-1.52V192H356.05v5.07h-1.52Zm19.17,33.77h-4.07v-6.45h4.07Zm0-7.08h-4.07v-6.45h4.07Zm-4.07-21h4.07v6.44h-4.07Zm4.07,13.65h-4.07V203.4h4.07Zm-4.83,14.42h-4.14v-6.45h4.14Zm0-7.21h-4.14v-6.19h4.14Zm-4.14-20.86h4.13v6.44h-4.13Zm4.14,13.65h-4.14V203.4h4.14ZM364,224.26h-4.13v-6.45H364Zm0-7.21h-4.13v-6.19H364Zm-4.13-20.86H364v6.44h-4.13ZM364,209.84h-4.13V203.4H364Zm10.65,18.38H358.92v-1.78h15.69Zm-33.29-4h-4.07v-6.45h4.07Zm0-7.08h-4.07v-6.45h4.07Zm-4.07-21h4.07v6.44h-4.07Zm4.07,13.65h-4.07V203.4h4.07Zm-4.83,14.42h-4.14v-6.45h4.14Zm0-7.21h-4.14v-6.19h4.14Zm-4.14-20.86h4.14v6.44h-4.14Zm4.14,13.65h-4.14V203.4h4.14Zm-4.91,14.42h-4.13v-6.45h4.13Zm0-7.21h-4.13v-6.19h4.13Zm-4.13-20.86h4.13v6.44h-4.13Zm4.13,13.65h-4.13V203.4h4.13Zm10.65,18.38H326.54v-1.78h15.69Zm-33.31-4h-4.07v-6.45h4.07Zm0-7.08h-4.07v-6.45h4.07Zm-4.07-21h4.07v6.44h-4.07Zm4.07,13.65h-4.07V203.4h4.07Zm-4.84,14.42H300v-6.45h4.13Zm0-7.21H300v-6.19h4.13Zm-4.14-20.86h4.14v6.44h-4.14Zm4.14,13.65H300V203.4h4.13Zm-4.9,14.42H295v-6.45h4.14Zm0-7.21H295v-6.19h4.14ZM295,196.19h4.14v6.44H295Zm4.14,13.65H295V203.4h4.14Zm10.65,18.38H294.14v-1.78h15.69Zm-27.34,6.29H386.26V177.76H282.5v56.75Z" transform="translate(-4.31 -79.27)"/>
    <path class="cls-1" d="M209.89,197.08h-1.52V192H186.94v5.07h-1.52v-6.59h24.47Zm-5.29,27.18h-4.07v-6.45h4.07Zm0-7.08h-4.07v-6.45h4.07Zm-4.08-21h4.07v6.44h-4.07Zm4.08,13.65h-4.07V203.4h4.07Zm-4.84,14.42h-4.14v-6.45h4.14Zm0-7.21h-4.14v-6.19h4.14Zm-4.14-20.86h4.14v6.44h-4.14Zm4.14,13.65h-4.14V203.4h4.14Zm-4.9,14.42h-4.14v-6.45h4.14Zm0-7.21h-4.14v-6.19h4.14Zm-4.14-20.86h4.14v6.44h-4.14Zm4.14,13.65h-4.14V203.4h4.14Zm10.64,18.38H189.81v-1.78H205.5Zm-28-31.14H176V192H154.56v5.07h-1.51v-6.59h24.46Zm-5.29,27.18h-4.07v-6.45h4.07Zm0-7.08h-4.07v-6.45h4.07Zm-4.07-21h4.07v6.44h-4.07Zm4.07,13.65h-4.07V203.4h4.07Zm-4.84,14.42h-4.14v-6.45h4.14Zm0-7.21h-4.14v-6.19h4.14Zm-4.14-20.86h4.14v6.44h-4.14Zm4.14,13.65h-4.14V203.4h4.14Zm-4.9,14.42h-4.14v-6.45h4.14Zm0-7.21h-4.14v-6.19h4.14Zm-4.14-20.86h4.14v6.44h-4.14Zm4.14,13.65h-4.14V203.4h4.14Zm10.64,18.38H157.43v-1.78h15.69Zm-28-31.14h-1.52V192H122.16v5.07h-1.52v-6.59h24.47Zm-5.3,27.18h-4.07v-6.45h4.07Zm0-7.08h-4.07v-6.45h4.07Zm-4.07-21h4.07v6.44h-4.07Zm4.07,13.65h-4.07V203.4h4.07ZM135,224.26h-4.14v-6.45H135Zm0-7.21h-4.14v-6.19H135Zm-4.14-20.86H135v6.44h-4.13ZM135,209.84h-4.14V203.4H135Zm-4.91,14.42h-4.13v-6.45h4.13Zm0-7.21h-4.13v-6.19h4.13Zm-4.13-20.86h4.13v6.44h-4.13Zm4.13,13.65h-4.13V203.4h4.13Zm10.65,18.38H125v-1.78h15.69Zm-27.33-50.38v56.67H217.15V177.84Z" transform="translate(-4.31 -79.27)"/>
    <path class="cls-1" d="M120.64,240.29h24.47v6.59h-1.52v-5.07H122.16v5.07h-1.52Zm32.41,0h24.46v6.59H176v-5.07H154.57v5.07h-1.52Zm32.37,0h24.47v6.59h-1.52v-5.07H186.94v5.07h-1.52Zm19.18,33.77h-4.07v-6.44h4.07Zm0-7.08h-4.07v-6.45h4.07Zm-4.08-21h4.07v6.45h-4.07Zm4.08,13.66h-4.07V253.2h4.07Zm-4.84,14.41h-4.14v-6.44h4.14Zm0-7.21h-4.14v-6.18h4.14ZM195.62,246h4.14v6.45h-4.14Zm4.14,13.66h-4.14V253.2h4.14Zm-4.9,14.41h-4.14v-6.44h4.14Zm0-7.21h-4.14v-6.18h4.14ZM190.72,246h4.13v6.45h-4.13Zm4.14,13.66h-4.14V253.2h4.14ZM205.5,278H189.81v-1.78H205.5Zm-33.28-4h-4.07v-6.44h4.07Zm0-7.08h-4.07v-6.45h4.07Zm-4.07-21h4.07v6.45h-4.07Zm4.07,13.66h-4.07V253.2h4.07Zm-4.84,14.41h-4.14v-6.44h4.14Zm0-7.21h-4.14v-6.18h4.14ZM163.24,246h4.14v6.45h-4.14Zm4.14,13.66h-4.14V253.2h4.14Zm-4.9,14.41h-4.14v-6.44h4.14Zm0-7.21h-4.14v-6.18h4.14ZM158.34,246h4.14v6.45h-4.14Zm4.14,13.66h-4.14V253.2h4.14ZM173.12,278H157.44v-1.78h15.68Zm-33.31-4h-4.07v-6.44h4.07Zm0-7.08h-4.07v-6.45h4.07Zm-4.07-21h4.07v6.45h-4.07Zm4.07,13.66h-4.07V253.2h4.07ZM135,274.06h-4.13v-6.44H135Zm0-7.21h-4.13v-6.18H135ZM130.84,246H135v6.45h-4.13ZM135,259.65h-4.13V253.2H135Zm-4.9,14.41h-4.14v-6.44h4.14Zm0-7.21h-4.14v-6.18h4.14ZM125.93,246h4.14v6.45h-4.14Zm4.14,13.66h-4.14V253.2h4.14ZM140.72,278H125v-1.78h15.69Zm-27.33,6.69H217.15V235.87H113.39Z" transform="translate(-4.31 -79.27)"/>
    <rect class="cls-1" x="247.9" y="187.45" width="1.31" height="7.34"/>
    <rect class="cls-1" x="247.9" y="195.56" width="1.31" height="7.34"/>
    <rect class="cls-1" x="249.97" y="195.56" width="2.61" height="7.34"/>
    <rect class="cls-1" x="249.97" y="187.45" width="2.61" height="7.34"/>
    <rect class="cls-1" x="249.97" y="185.35" width="2.61" height="1.33"/>
    <rect class="cls-1" x="247.9" y="185.35" width="1.31" height="1.33"/>
    <rect class="cls-1" x="247.9" y="203.67" width="1.31" height="1.33"/>
    <rect class="cls-1" x="253.35" y="185.35" width="1.27" height="1.33"/>
    <rect class="cls-1" x="253.35" y="195.56" width="1.27" height="7.34"/>
    <rect class="cls-1" x="253.35" y="187.45" width="1.27" height="7.34"/>
    <rect class="cls-1" x="249.97" y="203.67" width="2.61" height="1.33"/>
    <rect class="cls-1" x="253.35" y="203.67" width="1.27" height="1.33"/>
    <rect class="cls-1" x="236.46" y="187.45" width="1.31" height="7.34"/>
    <rect class="cls-1" x="236.46" y="195.56" width="1.31" height="7.34"/>
    <rect class="cls-1" x="238.53" y="195.56" width="2.61" height="7.34"/>
    <rect class="cls-1" x="238.53" y="187.45" width="2.61" height="7.34"/>
    <rect class="cls-1" x="238.53" y="185.35" width="2.61" height="1.33"/>
    <rect class="cls-1" x="236.46" y="185.35" width="1.31" height="1.33"/>
    <rect class="cls-1" x="236.46" y="203.67" width="1.31" height="1.33"/>
    <rect class="cls-1" x="241.91" y="185.35" width="1.27" height="1.33"/>
    <rect class="cls-1" x="241.91" y="195.56" width="1.27" height="7.34"/>
    <rect class="cls-1" x="241.91" y="187.45" width="1.27" height="7.34"/>
    <rect class="cls-1" x="238.53" y="203.67" width="2.61" height="1.33"/>
    <rect class="cls-1" x="241.91" y="203.67" width="1.27" height="1.33"/>
    <rect class="cls-1" x="278.18" y="89.8" width="103.77" height="7.45"/>
    <path class="cls-1" d="M396.32,167.7c-5.23,0-7.53.7-8.53,1.37v7.44c1-.66,3.3-1.36,8.53-1.36s7.55.7,8.55,1.37v-7.45c-1-.66-3.3-1.37-8.55-1.37" transform="translate(-4.31 -79.27)"/>
    <polygon class="cls-1" points="381.95 82.53 379.2 82.53 379.2 78.3 374.93 78.3 374.93 82.53 370.65 82.53 370.65 78.3 366.38 78.3 366.38 82.53 362.11 82.53 362.11 78.3 357.84 78.3 357.84 82.53 353.56 82.53 353.56 78.3 349.29 78.3 349.29 82.53 345.02 82.53 345.02 78.3 340.74 78.3 340.74 82.53 336.47 82.53 336.47 78.3 332.2 78.3 332.2 82.53 327.93 82.53 327.93 78.3 323.65 78.3 323.65 82.53 319.38 82.53 319.38 78.3 315.11 78.3 315.11 82.53 310.84 82.53 310.84 78.3 306.56 78.3 306.56 82.53 302.29 82.53 302.29 78.3 298.02 78.3 298.02 82.53 293.75 82.53 293.75 78.3 289.47 78.3 289.47 82.53 285.2 82.53 285.2 78.3 280.93 78.3 280.93 82.53 278.18 82.53 278.18 88.4 381.95 88.43 381.95 82.53"/>
    <path class="cls-1" d="M396.32,152.81c-5.24,0-7.54.71-8.54,1.37V167.7c1-.67,3.3-1.38,8.53-1.38s7.55.71,8.55,1.38V154.18c-1-.66-3.3-1.37-8.55-1.37" transform="translate(-4.31 -79.27)"/>
    <path class="cls-1" d="M111.86,154.18c-1-.66-3.3-1.37-8.55-1.37s-7.54.71-8.54,1.37V167.7c1-.67,3.3-1.38,8.54-1.38s7.54.71,8.55,1.38Z" transform="translate(-4.31 -79.27)"/>
    <polygon class="cls-1" points="210.09 82.53 210.09 78.3 205.82 78.3 205.82 82.53 201.55 82.53 201.55 78.3 197.27 78.3 197.27 82.53 193 82.53 193 78.3 188.73 78.3 188.73 82.53 184.45 82.53 184.45 78.3 180.18 78.3 180.18 82.53 175.91 82.53 175.91 78.3 171.64 78.3 171.64 82.53 167.36 82.53 167.36 78.3 163.09 78.3 163.09 82.53 158.82 82.53 158.82 78.3 154.54 78.3 154.54 82.53 150.27 82.53 150.27 78.3 146 78.3 146 82.53 141.73 82.53 141.73 78.3 137.45 78.3 137.45 82.53 133.18 82.53 133.18 78.3 128.91 78.3 128.91 82.53 124.64 82.53 124.64 78.3 120.36 78.3 120.36 82.53 116.09 82.53 116.09 78.3 111.82 78.3 111.82 82.53 109.07 82.53 109.07 88.43 212.84 88.43 212.84 82.53 210.09 82.53"/>
    <path class="cls-1" d="M111.86,169.07c-1-.66-3.3-1.37-8.55-1.37s-7.54.71-8.54,1.37v7.45c1-.67,3.3-1.37,8.54-1.37s7.54.7,8.55,1.37Z" transform="translate(-4.31 -79.27)"/>
    <rect class="cls-1" x="109.07" y="89.8" width="103.77" height="7.45"/>
    <path class="cls-1" d="M224.68,270.61h3.66v1.63h-3.66Zm1.83-2.43c.39,0,.81.68.87,1.62h-1.73c0-.94.48-1.62.86-1.62m7,29.32h32.67v1.72H233.5Zm-1.23,3.73h35.12V303H232.27Zm26.28-58h1.84v1.84h-1.84Zm0,2.61h1.84v4.8h-1.84Zm0,5.57h1.84v1.84h-1.84Zm-.76,1.84h-7.63v-1.84h7.63Zm-7.63-10h7.63v1.84h-7.63Zm7.63,7.41h-7.63v-4.8h7.63Zm-8.39,2.61h-7.53v-1.84h7.53Zm-7.53-10h7.53v1.84h-7.53Zm7.53,7.41h-7.53v-4.8h7.53Zm-8.29,2.61h-1.84v-1.84h1.84Zm-1.84-10h1.84v1.84h-1.84Zm1.84,7.41h-1.84v-4.8h1.84ZM249,295.5h-9.75V263.1H249Zm11.38,0h-9.63V263.1h9.63ZM239.27,256H260.4v5.5H239.27ZM232,238.77h35.71v6.59h-1.52v-5.07H233.5v5.07H232ZM271.3,273H275c-.1,1.35-1.06,3.8-1.83,3.8s-1.72-2.45-1.82-3.8m-44.79,3.8c-.76,0-1.73-2.45-1.82-3.8h3.64c-.09,1.35-1.05,3.8-1.82,3.8m44.78-6.23H275v1.63h-3.66Zm1.83-2.43c.39,0,.81.68.87,1.62h-1.73c.05-.94.48-1.62.86-1.62m-54.45-33.67v69.71a.74.74,0,0,0,.74.74h60.81a.74.74,0,0,0,.74-.74V234.51Z" transform="translate(-4.31 -79.27)"/>
    <rect class="cls-1" x="225.52" y="227.41" width="40.01" height="2.01"/>
  </g>
</svg>
